<svg width="24" height="24" xmlns="http://www.w3.org/2000/svg"><path d="M24 4.59H4.233L3.516.002H0v1.406h2.312l3.062 19.595h1.37A2.204 2.204 0 008.796 24a2.203 2.203 0 002.053-2.997h5.801A2.205 2.205 0 0018.702 24a2.204 2.204 0 002.202-2.202 2.204 2.204 0 00-2.201-2.201H6.577l-.368-2.36h15.216L24 4.591V4.59zM9.592 21.798a.796.796 0 01-1.59 0 .796.796 0 011.59 0zm9.906 0a.796.796 0 01-1.59 0 .796.796 0 011.59 0zM5.99 15.83L4.453 5.997h17.826l-2.002 9.833H5.989h.001z"/><path d="M11.22 8.43h1.407v4.968H11.22V8.429v.001zm2.813 0h1.406v4.968h-1.406V8.429v.001zm2.813 0h1.406v4.968h-1.406V8.429v.001zm-8.438 0h1.406v4.968H8.408V8.429v.001z"/></svg>