<svg width="24" height="24" xmlns="http://www.w3.org/2000/svg"><path d="M24 14.4V9.6l-2.88-.72c-.12-.36-.24-.72-.48-1.08l1.56-2.64-3.36-3.36-2.64 1.56c-.36-.12-.72-.36-1.08-.48L14.4 0H9.6l-.72 2.88c-.36.24-.72.36-1.08.48L5.16 1.8 1.8 5.16 3.36 7.8c-.12.36-.36.72-.48 1.08L0 9.6v4.8l2.88.72c.12.36.24.72.48 1.08L1.8 18.84l3.36 3.36 2.64-1.56c.36.12.72.36 1.08.48L9.6 24h4.8l.72-2.88c.36-.12.72-.24 1.08-.48l2.64 1.56 3.36-3.36-1.56-2.64c.12-.36.36-.72.48-1.08L24 14.4zm-12 1.2c-2.04 0-3.6-1.56-3.6-3.6S9.96 8.4 12 8.4s3.6 1.56 3.6 3.6-1.56 3.6-3.6 3.6z"/></svg>