<svg width="24" height="24" xmlns="http://www.w3.org/2000/svg"><path d="M18.832 14.215c.344 0 .672.062.985.187a2.5 2.5 0 01.843.563l2.579 2.578c.242.242.425.52.55.832.125.313.192.645.2.996 0 .344-.063.672-.188.985a2.497 2.497 0 01-.562.843l-.165.164c-.421.422-.808.797-1.16 1.125a5.933 5.933 0 01-1.101.82c-.383.22-.809.391-1.278.516-.468.125-1.027.184-1.675.176-.977 0-1.98-.152-3.012-.457a16.55 16.55 0 01-3.07-1.266 22.54 22.54 0 01-3-1.922A25.626 25.626 0 016 17.93a27.337 27.337 0 01-2.414-2.79 20.877 20.877 0 01-1.898-3A17.7 17.7 0 01.446 9.083C.14 8.059-.008 7.074 0 6.129c0-.649.055-1.203.164-1.664.11-.461.278-.883.504-1.266.227-.383.5-.746.82-1.09.32-.343.696-.73 1.126-1.16L2.8.762c.242-.242.52-.43.832-.563A2.53 2.53 0 014.63 0c.344 0 .672.066.985.2.312.132.593.32.843.562L9.035 3.34c.243.242.426.52.551.832.125.312.192.644.2.996 0 .344-.06.648-.176.914a3.737 3.737 0 01-.996 1.336 9.376 9.376 0 00-.575.527c-.18.18-.324.352-.433.516-.11.164-.168.355-.176.574 0 .297.105.55.316.762l6.457 6.457a1.042 1.042 0 001.325.141c.171-.118.347-.262.527-.434.18-.172.355-.36.527-.563a4.19 4.19 0 01.598-.574 3.12 3.12 0 01.727-.433 2.49 2.49 0 01.925-.176zM17.86 22.5c.562 0 1.03-.05 1.406-.152a3.61 3.61 0 001.031-.457c.313-.203.61-.453.89-.75.282-.297.614-.633.997-1.008.21-.211.316-.465.316-.762 0-.14-.054-.305-.164-.492a4.238 4.238 0 00-.445-.61 11.467 11.467 0 00-.598-.644c-.21-.21-.43-.422-.656-.633a71.07 71.07 0 00-.598-.55 12.642 12.642 0 01-.433-.41 1.052 1.052 0 00-.774-.317.978.978 0 00-.562.176 3.616 3.616 0 00-.516.433c-.172.172-.348.36-.527.563-.18.203-.383.394-.61.574-.226.18-.468.324-.726.434a2.626 2.626 0 01-1.91-.012 2.498 2.498 0 01-.844-.563L6.68 10.863a2.456 2.456 0 01-.55-.832 2.828 2.828 0 01-.2-.996c0-.344.059-.648.176-.914a3.737 3.737 0 01.996-1.336c.203-.172.394-.351.574-.539.18-.187.324-.36.434-.516.109-.156.168-.343.175-.562 0-.305-.105-.563-.316-.773a13.462 13.462 0 01-.398-.422 97.5 97.5 0 00-.551-.598 24.623 24.623 0 00-.633-.656 11.675 11.675 0 00-.656-.61 3.88 3.88 0 00-.598-.433A1.3 1.3 0 004.63 1.5c-.297 0-.55.105-.762.316l-.996.996a6.53 6.53 0 00-.75.891c-.21.305-.367.645-.468 1.02-.102.375-.157.843-.164 1.406 0 .875.14 1.777.421 2.707.282.93.676 1.86 1.184 2.789.508.93 1.106 1.844 1.793 2.742a25.808 25.808 0 002.25 2.567 23.707 23.707 0 002.566 2.226 21.925 21.925 0 002.743 1.758c.93.5 1.851.887 2.765 1.16a9.532 9.532 0 002.649.422z"/></svg>