<svg width="24" height="24" xmlns="http://www.w3.org/2000/svg"><path d="M12 0c.688 0 1.352.09 1.992.27.64.18 1.238.43 1.793.75.555.32 1.059.71 1.512 1.171.453.461.844.97 1.172 1.524A7.438 7.438 0 0119.5 7.5c0 .54-.063 1.05-.188 1.535a7.223 7.223 0 01-.562 1.465L12 24 5.25 10.5a7.364 7.364 0 01-.55-1.453A6.51 6.51 0 014.5 7.5c0-.688.09-1.352.27-1.992.18-.64.43-1.238.75-1.793.32-.555.71-1.059 1.171-1.512.461-.453.97-.844 1.524-1.172A7.463 7.463 0 0110.008.27C10.648.09 11.313 0 12 0zm5.578 9.914v-.012l.012-.011a5.087 5.087 0 00.598-2.391 6.103 6.103 0 00-1.816-4.371 6.376 6.376 0 00-1.97-1.324A6.14 6.14 0 0012 1.313a6.103 6.103 0 00-4.371 1.816 6.376 6.376 0 00-1.324 1.969A6.14 6.14 0 005.813 7.5a5.09 5.09 0 00.598 2.39v.012l.01.012L12 21.07l5.578-11.156zM12 3.094c.61 0 1.18.113 1.71.34a4.425 4.425 0 012.345 2.343c.218.524.336 1.098.351 1.723 0 .61-.113 1.18-.34 1.71a4.427 4.427 0 01-2.343 2.345 4.737 4.737 0 01-1.723.351c-.61 0-1.18-.113-1.71-.34a4.426 4.426 0 01-2.345-2.343A4.736 4.736 0 017.594 7.5c0-.61.113-1.18.34-1.71a4.425 4.425 0 012.343-2.345A4.737 4.737 0 0112 3.094zm0 7.5c.43 0 .832-.078 1.207-.235.375-.156.703-.379.984-.668.282-.289.5-.617.657-.984a3.21 3.21 0 00.246-1.207c0-.43-.078-.832-.235-1.207a2.933 2.933 0 00-.668-.984 3.196 3.196 0 00-.984-.657A3.2 3.2 0 0012 4.406c-.43 0-.832.078-1.207.235a2.933 2.933 0 00-.984.668c-.282.289-.5.617-.657.984A3.2 3.2 0 008.906 7.5c0 .43.078.832.235 1.207.156.375.379.703.668.984.289.282.617.5.984.657.367.156.77.238 1.207.246z"/></svg>