<svg width="80" height="80" xmlns="http://www.w3.org/2000/svg"><path d="M47.197 0C29.109 0 14.393 14.716 14.393 32.803a32.654 32.654 0 007.514 20.871L0 75.582 4.418 80l21.908-21.908a32.651 32.651 0 0020.87 7.515C65.285 65.607 80 50.89 80 32.803 80 14.716 65.284 0 47.197 0zm0 59.358c-14.643 0-26.556-11.912-26.556-26.555 0-14.642 11.913-26.555 26.556-26.555 14.642 0 26.555 11.913 26.555 26.555 0 14.643-11.913 26.556-26.555 26.556zM62.108 22.31L51.615 32.803l10.493 10.494-4.418 4.418-10.493-10.493-10.494 10.493-4.418-4.419 10.493-10.493L32.285 22.31l4.419-4.418 10.493 10.493L57.69 17.892l4.418 4.418z"/></svg>