<svg width="65" height="65" fill="none" xmlns="http://www.w3.org/2000/svg"><path d="M19.147 41.819c0-1.08-.749-1.723-2.07-1.723-.54 0-.905.053-1.097.104v3.463c.227.051.505.068.889.068 1.408 0 2.278-.711 2.278-1.912zm8.183-1.687c-.592 0-.975.051-1.201.104v7.67c.226.054.592.054.922.054 2.401.017 3.967-1.305 3.967-4.105.017-2.435-1.41-3.723-3.689-3.723z" fill="#3C94D1"/><path d="M42.527 0H16.42c-3.813 0-6.918 3.106-6.918 6.918V32.5h-.675a2.787 2.787 0 00-2.788 2.788v16.906a2.787 2.787 0 002.788 2.788h.675v3.1A6.925 6.925 0 0016.42 65h35.622c3.811 0 6.916-3.102 6.916-6.918V16.373L42.528 0zM13.352 38.339c.817-.138 1.966-.242 3.584-.242 1.635 0 2.8.312 3.583.939.748.59 1.253 1.566 1.253 2.713s-.383 2.123-1.079 2.783c-.905.853-2.243 1.235-3.81 1.235-.348 0-.66-.017-.904-.051v4.192h-2.627v-11.57zm38.69 22.424H16.42a2.684 2.684 0 01-2.68-2.681v-3.1h33.207a2.787 2.787 0 002.788-2.788V35.288a2.787 2.787 0 00-2.788-2.788H13.74V6.918a2.683 2.683 0 012.68-2.677l24.521-.026v9.064a4.8 4.8 0 004.798 4.798l8.88-.026.099 40.03c0 1.48-1.2 2.682-2.677 2.682zM23.465 49.855V38.339c.974-.155 2.244-.242 3.584-.242 2.226 0 3.67.4 4.802 1.251 1.217.905 1.982 2.348 1.982 4.42 0 2.243-.817 3.792-1.949 4.748-1.234 1.026-3.113 1.513-5.41 1.513-1.374 0-2.348-.087-3.009-.174zm18.986-6.818v2.156h-4.21v4.715h-2.662V38.184h7.167v2.173h-4.505v2.68h4.21z" fill="#3C94D1"/></svg>