<svg width="80" height="80" xmlns="http://www.w3.org/2000/svg"><path d="M40 80c-3.69 0-7.232-.476-10.625-1.429a41.09 41.09 0 01-9.554-4.017 38.357 38.357 0 01-8.08-6.25 42.194 42.194 0 01-6.25-8.08c-1.756-2.947-3.11-6.132-4.062-9.554C.476 47.247 0 43.69 0 40c0-3.69.476-7.232 1.429-10.625a41.09 41.09 0 014.017-9.554 38.355 38.355 0 016.25-8.08 42.194 42.194 0 018.08-6.25c2.947-1.756 6.132-3.11 9.554-4.062C32.753.476 36.31 0 40 0c3.69 0 7.232.476 10.625 1.429a41.09 41.09 0 019.554 4.017 38.355 38.355 0 018.08 6.25 42.193 42.193 0 016.25 8.08c1.756 2.947 3.11 6.132 4.062 9.554C79.524 32.753 80 36.31 80 40c0 3.69-.476 7.232-1.429 10.625a41.09 41.09 0 01-4.017 9.554 38.357 38.357 0 01-6.25 8.08 42.193 42.193 0 01-8.08 6.25c-2.947 1.756-6.132 3.11-9.554 4.062C47.247 79.524 43.69 80 40 80zm0-74.286c-4.732 0-9.167.893-13.304 2.679-4.137 1.786-7.767 4.24-10.892 7.366-3.125 3.125-5.58 6.756-7.367 10.893C6.652 30.789 5.745 35.238 5.715 40c0 4.732.893 9.167 2.679 13.304 1.786 4.136 4.24 7.767 7.366 10.892 3.125 3.125 6.756 5.58 10.893 7.367 4.137 1.785 8.586 2.693 13.348 2.723 4.732 0 9.167-.893 13.304-2.679 4.136-1.786 7.767-4.24 10.892-7.366 3.125-3.125 5.58-6.756 7.367-10.893 1.785-4.137 2.693-8.586 2.723-13.348 0-4.732-.893-9.167-2.679-13.304-1.786-4.137-4.24-7.767-7.366-10.892-3.125-3.125-6.756-5.58-10.893-7.367C49.211 6.652 44.762 5.745 40 5.715zM40 40V17.143h-5.714v28.571h22.857V40H40z"/></svg>