<svg version="1.1" id="Слой_1" xmlns="http://www.w3.org/2000/svg" x="0" y="0" viewBox="0 0 651.779 272.69" xml:space="preserve"><style>.st10{fill:none}.st11{fill:#babbbd}.st12{fill:#fff}</style><linearGradient id="SVGID_1_" gradientUnits="userSpaceOnUse" x1="27.89" y1="-284.766" x2="28.597" y2="-284.058"><stop offset="0" stop-color="#e6e6eb"/><stop offset=".175" stop-color="#e2e2e7"/><stop offset=".355" stop-color="#d6d6db"/><stop offset=".537" stop-color="#c2c3c6"/><stop offset=".72" stop-color="#a5a7a9"/><stop offset=".903" stop-color="#818485"/><stop offset="1" stop-color="#6b6e6e"/></linearGradient><path d="M203.477 100.144l27.835 9.754 60.341-101.16-36.13-4.773-56.245 94.293a27.466 27.466 0 004.199 1.886z" fill="#0e6d39"/><path d="M187.486 85.22l49.897-83.651L227.311.238a27.202 27.202 0 00-10.107.551c-7.555 1.868-12.061 6.782-15.706 10.802-6.639 7.322-9.789 15.245-11.348 20.76l-4.093 35.89a27.08 27.08 0 001.429 16.979z" fill="#005d8d"/><path d="M302.332 139.81l13.582-3.19a37.597 37.597 0 008.033-4.13c12.679-8.603 16.43-22.669 17.546-27.943l10.958-45.931c1.464-6.135.751-12.37-1.809-17.814l-60.657 101.683 12.347-2.675z" fill="#c1bc43"/><path d="M279.736 126.867l59.145-99.156-12.289-10.174a27.087 27.087 0 00-13.75-6l-3.05-.403-62.294 104.436 32.238 11.297z" fill="#71973e"/><radialGradient id="SVGID_2_" cx="351.904" cy="-67.785" r="49.693" gradientTransform="rotate(180 294.943 .842)" gradientUnits="userSpaceOnUse"><stop offset="0" stop-color="#37ab5e"/><stop offset="1" stop-color="#009748"/></radialGradient><path d="M195.993 112.681l27.835 9.754 60.341-101.16-36.13-4.773-56.245 94.293a27.554 27.554 0 004.199 1.886z" fill="url(#SVGID_2_)"/><radialGradient id="SVGID_3_" cx="386.024" cy="-53.463" r="35.31" gradientTransform="rotate(180 294.943 .842)" gradientUnits="userSpaceOnUse"><stop offset="0" stop-color="#40a4dc"/><stop offset="1" stop-color="#3783c5"/></radialGradient><path d="M180.003 97.757L229.9 14.106l-10.072-1.33a27.065 27.065 0 00-29.946 20.603l-11.308 47.399a27.065 27.065 0 001.429 16.979z" fill="url(#SVGID_3_)"/><radialGradient id="SVGID_4_" cx="272.034" cy="-96.229" r="37.171" gradientTransform="rotate(180 294.943 .842)" gradientUnits="userSpaceOnUse"><stop offset="0" stop-color="#f0eb88"/><stop offset="1" stop-color="#e3e157"/></radialGradient><path d="M292.391 142.066l21.231-4.818c10.158-2.305 17.97-10.032 20.388-20.164l10.958-45.931c1.464-6.135.751-12.37-1.809-17.813l-53.174 89.145a26.843 26.843 0 002.406-.419z" fill="url(#SVGID_4_)"/><radialGradient id="SVGID_5_" cx="304.179" cy="-79.854" r="52.136" gradientTransform="rotate(180 294.943 .842)" gradientUnits="userSpaceOnUse"><stop offset="0" stop-color="#a2c85d"/><stop offset="1" stop-color="#8dbf43"/></radialGradient><path d="M272.253 139.404l59.145-99.155-12.289-10.174a27.087 27.087 0 00-13.75-6l-3.05-.403-62.295 104.436 32.239 11.296z" fill="url(#SVGID_5_)"/><path class="st10" d="M446.247 62.396zm-28.27 70.717l.046-.01a.621.621 0 01-.046.01zm30.248 14.874a26.254 26.254 0 00-.002 0h.002zm-14.25-59.819c5.016-.227 8.31-5.44 6.244-10.097l-6.955-15.674a7.2 7.2 0 00-6.568-4.279l-29.667-.051c.148-.009.294-.022.444-.022a7.2 7.2 0 00-7.212 7.187l-.027 15.662a7.2 7.2 0 007.187 7.212l49.188.085-12.634-.023z"/><path class="st11" d="M373.79 140.683l.158-91.82c.007-3.857 3.048-6.992 6.86-7.17l-5.629-.01a7.2 7.2 0 00-7.212 7.187l-.159 91.821a7.2 7.2 0 007.187 7.212h10.289l-4.308-.007a7.202 7.202 0 01-7.186-7.213zm74.434 7.304a27.034 27.034 0 00-.858-1.679c-4.592-8.238-13.38-13.818-23.481-13.836a27.01 27.01 0 00-5.861.631l-.046.01c-.2.044-.393.105-.591.153a26.972 26.972 0 0117.856 14.72l12.995.023-.012-.023h-.002z"/><path class="st10" d="M450.874 86.803c-.47.346-.986.638-1.539.863a7.184 7.184 0 010 .001 7.033 7.033 0 001.539-.861c1.852-1.362 2.991-3.576 2.953-5.927a7.279 7.279 0 01-2.953 5.924zm-10.654-8.757l-6.955-15.712a7.188 7.188 0 00-5.88-4.238l-29.912-.052a7.2 7.2 0 00-7.212 7.187l-.027 15.662a7.2 7.2 0 007.187 7.212l49.188.085-12.634-.022c5.016-.228 8.311-5.454 6.245-10.122z"/><path class="st11" d="M450.874 86.803a7.278 7.278 0 002.953-5.923 7.023 7.023 0 00-.088-1.006 7.256 7.256 0 00-.538-1.803l-6.955-15.674a7.198 7.198 0 00-6.568-4.279l-12.294-.021a7.19 7.19 0 015.88 4.238l6.955 15.712c2.066 4.668-1.228 9.894-6.244 10.122l12.634.022a7.18 7.18 0 002.725-.523 7.204 7.204 0 001.54-.865z"/><path id="inner" class="st12" d="M479.461 96.96l-22.579-50.886a7.2 7.2 0 00-6.568-4.279l-69.154-.119c-.119 0-.234.012-.352.017-3.812.178-6.853 3.312-6.86 7.17l-.158 91.82a7.2 7.2 0 007.187 7.212l4.308.007 14.194.025a26.973 26.973 0 0117.908-14.66c.198-.049.392-.109.591-.153l.046-.01a27.017 27.017 0 015.861-.631c10.102.018 18.889 5.598 23.481 13.836.305.548.592 1.108.86 1.679l.012.023v.001l24.56.042a7.2 7.2 0 007.212-7.187l.071-40.974c0-1.011-.21-2.01-.62-2.933zm-28.587-10.154a7.08 7.08 0 01-1.539.861 7.184 7.184 0 01-2.725.522l-49.188-.085a7.2 7.2 0 01-7.187-7.212l.027-15.662a7.2 7.2 0 017.212-7.187l29.912.052 12.294.021a7.197 7.197 0 016.568 4.279l6.955 15.674a7.17 7.17 0 01.626 2.809 7.261 7.261 0 01-2.955 5.928z"/><path id="inner_7_" class="st12" d="M41.63 183.644c19.746 0 32.323 8.552 32.323 22.01 0 9.307-5.786 16.728-15.093 19.369 11.068 2.138 18.111 10.816 18.111 22.262 0 14.966-13.08 24.399-33.832 24.399H0v-88.039h41.63zM22.261 218.86h18.111c6.54 0 10.691-3.522 10.691-9.181 0-5.66-4.151-8.93-10.691-8.93H22.261v18.111zm0 35.593h18.111c8.301 0 13.458-3.648 13.458-9.936 0-5.911-5.157-9.558-13.458-9.558H22.261v19.494z"/><path id="inner_6_" class="st12" d="M116.891 201.252v17.482h42.008v17.608h-42.008v17.734h47.919v17.608H94.504v-88.039h68.922v17.608h-46.535z"/><path id="inner_5_" class="st12" d="M223.393 201.63v70.054h-22.387V201.63H174.72v-18.111h75.211v18.111h-26.538z"/><path id="inner_4_" class="st12" d="M350.547 227.538c0 25.657-20.375 45.152-47.667 45.152-27.167 0-47.541-19.369-47.541-45.152 0-25.657 20.374-44.648 47.541-44.648 27.292 0 47.667 19.117 47.667 44.648zm-72.319.126c0 14.841 11.445 26.286 24.903 26.286 13.583 0 24.399-11.445 24.399-26.286 0-14.841-10.816-26.035-24.399-26.035-13.583.001-24.903 11.194-24.903 26.035z"/><path id="inner_3_" class="st12" d="M428.322 271.684l-40.498-54.207v54.207H366.82v-88.039h19.745l40.624 54.333v-54.333h20.878v88.039h-19.745z"/><path id="inner_2_" class="st12" d="M504.086 237.097l-11.696 12.954v21.633h-22.387v-88.039h22.387v38.109l33.707-38.109h25.909l-32.701 36.474 34.838 51.566h-26.789l-23.268-34.588z"/><path class="st12" d="M651.779 227.538c0 25.657-20.374 45.152-47.667 45.152-27.167 0-47.541-19.369-47.541-45.152 0-25.657 20.375-44.648 47.541-44.648 27.293 0 47.667 19.117 47.667 44.648zm-72.318.126c0 14.841 11.445 26.286 24.903 26.286 13.583 0 24.399-11.445 24.399-26.286 0-14.841-10.816-26.035-24.399-26.035-13.584.001-24.903 11.194-24.903 26.035z" id="inner_1_"/></svg>