<svg version="1.1" id="Слой_1" xmlns="http://www.w3.org/2000/svg" x="0" y="0" width="302.256" height="148.053" xml:space="preserve"><style>.st10{fill:none}.st11{fill:#babbbd}</style><linearGradient id="SVGID_1_" gradientUnits="userSpaceOnUse" x1="-117.421" y1="-409.482" x2="-116.713" y2="-408.775"><stop offset="0" stop-color="#e6e6eb"/><stop offset=".175" stop-color="#e2e2e7"/><stop offset=".355" stop-color="#d6d6db"/><stop offset=".537" stop-color="#c2c3c6"/><stop offset=".72" stop-color="#a5a7a9"/><stop offset=".903" stop-color="#818485"/><stop offset="1" stop-color="#6b6e6e"/></linearGradient><path d="M25.653 100.144l27.835 9.754 60.341-101.16-36.13-4.773-56.245 94.293a27.466 27.466 0 004.199 1.886z" fill="#0e6d39"/><path d="M9.662 85.22L59.559 1.569 49.488.238a27.203 27.203 0 00-10.107.551C31.825 2.657 27.32 7.571 23.675 11.591c-6.639 7.322-9.789 15.245-11.348 20.76l-4.093 35.89A27.072 27.072 0 009.662 85.22z" fill="#005d8d"/><path d="M124.509 139.81l13.582-3.19a37.597 37.597 0 008.033-4.13c12.679-8.603 16.43-22.669 17.546-27.943l10.958-45.931c1.464-6.135.751-12.37-1.809-17.814l-60.657 101.683 12.347-2.675z" fill="#c1bc43"/><path d="M101.913 126.867l59.145-99.156-12.289-10.174a27.087 27.087 0 00-13.75-6l-3.05-.403L69.674 115.57l32.239 11.297z" fill="#71973e"/><radialGradient id="SVGID_2_" cx="239.107" cy="-317.217" r="49.693" gradientTransform="rotate(180 149.633 -123.874)" gradientUnits="userSpaceOnUse"><stop offset="0" stop-color="#37ab5e"/><stop offset="1" stop-color="#009748"/></radialGradient><path d="M18.17 112.681l27.835 9.754 60.341-101.16-36.13-4.773-56.245 94.293a27.466 27.466 0 004.199 1.886z" fill="url(#SVGID_2_)"/><radialGradient id="SVGID_3_" cx="273.228" cy="-302.896" r="35.31" gradientTransform="rotate(180 149.633 -123.874)" gradientUnits="userSpaceOnUse"><stop offset="0" stop-color="#40a4dc"/><stop offset="1" stop-color="#3783c5"/></radialGradient><path d="M2.179 97.757l49.897-83.651-10.072-1.33a27.065 27.065 0 00-29.946 20.603L.751 80.778a27.072 27.072 0 001.428 16.979z" fill="url(#SVGID_3_)"/><radialGradient id="SVGID_4_" cx="159.238" cy="-345.662" r="37.171" gradientTransform="rotate(180 149.633 -123.874)" gradientUnits="userSpaceOnUse"><stop offset="0" stop-color="#f0eb88"/><stop offset="1" stop-color="#e3e157"/></radialGradient><path d="M114.567 142.066l21.231-4.818c10.158-2.305 17.97-10.032 20.388-20.164l10.958-45.931c1.464-6.135.751-12.37-1.809-17.813l-53.174 89.145a26.78 26.78 0 002.406-.419z" fill="url(#SVGID_4_)"/><radialGradient id="SVGID_5_" cx="191.383" cy="-329.286" r="52.136" gradientTransform="rotate(180 149.633 -123.874)" gradientUnits="userSpaceOnUse"><stop offset="0" stop-color="#a2c85d"/><stop offset="1" stop-color="#8dbf43"/></radialGradient><path d="M94.429 139.404l59.145-99.155-12.289-10.174a27.087 27.087 0 00-13.75-6l-3.05-.403-62.294 104.435 32.238 11.297z" fill="url(#SVGID_5_)"/><path class="st10" d="M268.423 62.396zm-28.269 70.717l.046-.01a.966.966 0 01-.046.01zm30.248 14.874a26.254 26.254 0 00-.002 0h.002zm-14.25-59.819c5.016-.227 8.31-5.44 6.244-10.097l-6.955-15.674a7.2 7.2 0 00-6.568-4.279l-29.667-.051c.148-.009.294-.022.444-.022a7.2 7.2 0 00-7.212 7.187l-.027 15.662a7.2 7.2 0 007.187 7.212l49.187.085-12.633-.023z"/><path class="st11" d="M195.966 140.683l.158-91.82c.007-3.857 3.048-6.992 6.86-7.17l-5.629-.01a7.2 7.2 0 00-7.212 7.187l-.159 91.821a7.2 7.2 0 007.187 7.212h10.289l-4.308-.007a7.202 7.202 0 01-7.186-7.213zm74.434 7.304a27.034 27.034 0 00-.858-1.679c-4.592-8.238-13.38-13.818-23.481-13.836a27.01 27.01 0 00-5.861.631l-.046.01c-.2.044-.393.105-.591.153a26.974 26.974 0 0117.856 14.72l12.995.023-.012-.023h-.002z"/><path class="st10" d="M273.05 86.803c-.47.346-.986.638-1.539.863a7.186 7.186 0 010 .001 7.033 7.033 0 001.539-.861c1.852-1.362 2.991-3.576 2.953-5.927a7.276 7.276 0 01-2.953 5.924zm-10.654-8.757l-6.955-15.712a7.188 7.188 0 00-5.88-4.238l-29.912-.052a7.2 7.2 0 00-7.212 7.187l-.027 15.662a7.2 7.2 0 007.187 7.212l49.187.085-12.633-.022c5.017-.228 8.311-5.454 6.245-10.122z"/><path class="st11" d="M273.05 86.803a7.278 7.278 0 002.953-5.923 7.023 7.023 0 00-.088-1.006 7.256 7.256 0 00-.538-1.803l-6.955-15.674a7.198 7.198 0 00-6.568-4.279l-12.294-.021a7.19 7.19 0 015.88 4.238l6.955 15.712c2.066 4.668-1.228 9.894-6.244 10.122l12.633.022a7.186 7.186 0 002.726-.523 7.18 7.18 0 001.54-.865z"/><path id="inner" d="M301.637 96.96l-22.579-50.886a7.2 7.2 0 00-6.568-4.279l-69.154-.119c-.119 0-.234.012-.352.017-3.812.178-6.853 3.312-6.86 7.17l-.158 91.82a7.2 7.2 0 007.187 7.212l4.308.007 14.194.025a26.973 26.973 0 0117.908-14.66c.198-.049.392-.109.591-.153l.046-.01a27.017 27.017 0 015.861-.631c10.102.018 18.889 5.598 23.481 13.836.305.548.592 1.108.86 1.679l.012.023v.001l24.56.042a7.2 7.2 0 007.212-7.187l.071-40.974a7.206 7.206 0 00-.62-2.933zM273.05 86.806a7.08 7.08 0 01-1.539.861 7.185 7.185 0 01-2.726.522l-49.187-.085a7.2 7.2 0 01-7.187-7.212l.027-15.662a7.2 7.2 0 017.212-7.187l29.912.052 12.294.021a7.197 7.197 0 016.568 4.279l6.955 15.674a7.17 7.17 0 01.626 2.809 7.261 7.261 0 01-2.955 5.928z" fill="#fff"/></svg>